<svg xmlns="http://www.w3.org/2000/svg" width="1080" height="750" viewBox="0 0 1080 750" role="img" aria-labelledby="t d"><title id="t">3. Debuggable at three in the morning</title><desc id="d">AWS implementation with service roles and labelled data flow.</desc><defs><marker id="a" markerWidth="8" markerHeight="8" refX="7" refY="4" orient="auto"><path d="M0 0L8 4L0 8Z" fill="#526776"/></marker></defs><rect width="1080" height="750" rx="16" fill="#f8fafc"/><style>text{font-family:Arial,sans-serif;fill:#193444}.name{font-size:23px;font-weight:bold}.role{font-size:19px}.detail{font-size:17px;fill:#526575}.edge{font-size:16px;font-weight:bold}</style>
<text x="36" y="44" class="name" style="font-size:23px">3. Debuggable at three in the morning</text><text x="36" y="77" class="detail">AWS service • general architectural role • responsibility in this project</text>
<path d="M446 183 L626 183" fill="none" stroke="#526776" stroke-width="2.2" marker-end="url(#a)"/>
<rect x="498.6" y="150" width="74.80000000000001" height="23" fill="#f8fafc"/><text x="536.0" y="166" class="edge" text-anchor="middle">request</text>
<path d="M626 213 L556 213 L556 353 L446 353" fill="none" stroke="#526776" stroke-width="2.2" marker-end="url(#a)"/>
<rect x="494.2" y="267.0" width="91.60000000000001" height="23" fill="#f8fafc"/><text x="540" y="283.0" class="edge" text-anchor="middle">telemetry</text>
<path d="M446 383 L626 383" fill="none" stroke="#526776" stroke-width="2.2" marker-end="url(#a)"/>
<rect x="502.8" y="350" width="66.4" height="23" fill="#f8fafc"/><text x="536.0" y="366" class="edge" text-anchor="middle">export</text>
<path d="M446 613 L536 613 L536 153 L626 153" fill="none" stroke="#526776" stroke-width="2.2" marker-end="url(#a)"/>
<rect x="477.4" y="367.0" width="125.2" height="23" fill="#f8fafc"/><text x="540" y="383.0" class="edge" text-anchor="middle">configuration</text>
<path d="M831 243 L831 518" fill="none" stroke="#526776" stroke-width="2.2" marker-end="url(#a)"/>
<rect x="806.2" y="358.5" width="49.6" height="23" fill="#f8fafc"/><text x="831" y="374.5" class="edge" text-anchor="middle">jobs</text>
<path d="M831 518 L831 443" fill="none" stroke="#526776" stroke-width="2.2" marker-end="url(#a)"/>
<rect x="768.4" y="458.5" width="125.2" height="23" fill="#f8fafc"/><text x="831" y="474.5" class="edge" text-anchor="middle">queue metrics</text>
<rect x="36" y="118" width="410" height="125" rx="10" fill="white" stroke="#8557a3" stroke-width="2"/><text x="54" y="150" class="name" style="font-size:23px">Application Load Balancer</text><text x="54" y="180" class="role">(public request entry)</text>
<text x="54" y="207" class="detail">Traffic and HTTP outcomes</text>
<rect x="626" y="118" width="410" height="125" rx="10" fill="white" stroke="#c27720" stroke-width="2"/><text x="644" y="150" class="name" style="font-size:23px">Amazon ECS</text><text x="644" y="180" class="role">(instrumented application)</text>
<text x="644" y="207" class="detail">Request/job identity and phase timing</text>
<rect x="36" y="318" width="410" height="125" rx="10" fill="white" stroke="#8557a3" stroke-width="2"/><text x="54" y="350" class="name" style="font-size:23px">AWS Distro for OpenTelemetry</text><text x="54" y="380" class="role">(evidence collection)</text>
<text x="54" y="407" class="detail">Bounded export and trace context</text>
<rect x="626" y="318" width="410" height="125" rx="10" fill="white" stroke="#8557a3" stroke-width="2"/><text x="644" y="350" class="name" style="font-size:23px">Amazon CloudWatch</text><text x="644" y="380" class="role">(responder workspace)</text>
<text x="644" y="407" class="detail">Impact metrics and correlated traces</text>
<rect x="36" y="518" width="410" height="125" rx="10" fill="white" stroke="#8557a3" stroke-width="2"/><text x="54" y="550" class="name" style="font-size:23px">AWS AppConfig</text><text x="54" y="580" class="role">(applied change history)</text>
<text x="54" y="607" class="detail">Configuration identity and rollback</text>
<rect x="626" y="518" width="410" height="125" rx="10" fill="white" stroke="#8557a3" stroke-width="2"/><text x="644" y="550" class="name" style="font-size:23px">Amazon SQS</text><text x="644" y="580" class="role">(asynchronous work)</text>
<text x="644" y="607" class="detail">Oldest age and retry evidence</text>
<text x="36" y="722" class="detail">Proposed cloud implementation; the local starting code demonstrates the named mechanism only.</text></svg>