<svg xmlns="http://www.w3.org/2000/svg" viewBox="0 0 760 340" width="760" height="340" role="img" aria-label="A right-skewed distribution of request latencies. Most requests cluster on the fast left-hand side, and the average sits comfortably inside target. A long visible tail continues all the way to the right, drawn in a warm colour, and the ninety-ninth percentile sits far beyond the average.">
  <rect width="760" height="340" rx="10" fill="#faf9f7"/>

  <text x="70" y="34" font-family="ui-monospace, SFMono-Regular, Menlo, monospace" font-size="11" fill="#8a857d" letter-spacing="1.6">ONE DAY OF TRAFFIC · EVERY BAR IS REAL REQUESTS</text>

  <rect x="70" y="198.8" width="13" height="53.2" rx="1.5" fill="#eef2ef" stroke="#2f6f4e" stroke-width="0.8"/>
  <rect x="86" y="153.2" width="13" height="98.8" rx="1.5" fill="#eef2ef" stroke="#2f6f4e" stroke-width="0.8"/>
  <rect x="102" y="107.6" width="13" height="144.4" rx="1.5" fill="#eef2ef" stroke="#2f6f4e" stroke-width="0.8"/>
  <rect x="118" y="100.0" width="13" height="152.0" rx="1.5" fill="#eef2ef" stroke="#2f6f4e" stroke-width="0.8"/>
  <rect x="134" y="160.3" width="13" height="91.7" rx="1.5" fill="#eef2ef" stroke="#2f6f4e" stroke-width="0.8"/>
  <rect x="150" y="188.5" width="13" height="63.5" rx="1.5" fill="#eef2ef" stroke="#2f6f4e" stroke-width="0.8"/>
  <rect x="166" y="204.4" width="13" height="47.6" rx="1.5" fill="#eef2ef" stroke="#2f6f4e" stroke-width="0.8"/>
  <rect x="182" y="214.5" width="13" height="37.5" rx="1.5" fill="#eef2ef" stroke="#2f6f4e" stroke-width="0.8"/>
  <rect x="198" y="221.3" width="13" height="30.7" rx="1.5" fill="#eef2ef" stroke="#2f6f4e" stroke-width="0.8"/>
  <rect x="214" y="226.3" width="13" height="25.7" rx="1.5" fill="#eef2ef" stroke="#2f6f4e" stroke-width="0.8"/>
  <rect x="230" y="230.0" width="13" height="22.0" rx="1.5" fill="#eef2ef" stroke="#2f6f4e" stroke-width="0.8"/>
  <rect x="246" y="232.8" width="13" height="19.2" rx="1.5" fill="#eef2ef" stroke="#2f6f4e" stroke-width="0.8"/>
  <rect x="262" y="235.1" width="13" height="16.9" rx="1.5" fill="#eef2ef" stroke="#2f6f4e" stroke-width="0.8"/>
  <rect x="278" y="237.0" width="13" height="15.0" rx="1.5" fill="#eef2ef" stroke="#2f6f4e" stroke-width="0.8"/>
  <rect x="294" y="238.5" width="13" height="13.5" rx="1.5" fill="#eef2ef" stroke="#2f6f4e" stroke-width="0.8"/>
  <rect x="310" y="239.7" width="13" height="12.3" rx="1.5" fill="#eef2ef" stroke="#2f6f4e" stroke-width="0.8"/>
  <rect x="326" y="240.8" width="13" height="11.2" rx="1.5" fill="#eef2ef" stroke="#2f6f4e" stroke-width="0.8"/>
  <rect x="342" y="241.7" width="13" height="10.3" rx="1.5" fill="#eef2ef" stroke="#2f6f4e" stroke-width="0.8"/>
  <rect x="358" y="242.5" width="13" height="9.5" rx="1.5" fill="#eef2ef" stroke="#2f6f4e" stroke-width="0.8"/>
  <rect x="374" y="243.2" width="13" height="8.8" rx="1.5" fill="#eef2ef" stroke="#2f6f4e" stroke-width="0.8"/>
  <rect x="390" y="243.8" width="13" height="8.2" rx="1.5" fill="#eef2ef" stroke="#2f6f4e" stroke-width="0.8"/>
  <rect x="406" y="244.4" width="13" height="7.6" rx="1.5" fill="#eef2ef" stroke="#2f6f4e" stroke-width="0.8"/>
  <rect x="422" y="244.9" width="13" height="7.1" rx="1.5" fill="#eef2ef" stroke="#2f6f4e" stroke-width="0.8"/>
  <rect x="438" y="245.3" width="13" height="6.7" rx="1.5" fill="#eef2ef" stroke="#2f6f4e" stroke-width="0.8"/>
  <rect x="454" y="245.7" width="13" height="6.3" rx="1.5" fill="#eef2ef" stroke="#2f6f4e" stroke-width="0.8"/>
  <rect x="470" y="246.0" width="13" height="6.0" rx="1.5" fill="#eef2ef" stroke="#2f6f4e" stroke-width="0.8"/>
  <rect x="486" y="246.3" width="13" height="5.7" rx="1.5" fill="#c2703d" stroke="#a85d2f" stroke-width="0.8"/>
  <rect x="502" y="246.6" width="13" height="5.4" rx="1.5" fill="#c2703d" stroke="#a85d2f" stroke-width="0.8"/>
  <rect x="518" y="246.9" width="13" height="5.1" rx="1.5" fill="#c2703d" stroke="#a85d2f" stroke-width="0.8"/>
  <rect x="534" y="247.0" width="13" height="5.0" rx="1.5" fill="#c2703d" stroke="#a85d2f" stroke-width="0.8"/>
  <rect x="550" y="247.0" width="13" height="5.0" rx="1.5" fill="#c2703d" stroke="#a85d2f" stroke-width="0.8"/>
  <rect x="566" y="247.0" width="13" height="5.0" rx="1.5" fill="#c2703d" stroke="#a85d2f" stroke-width="0.8"/>
  <rect x="582" y="247.0" width="13" height="5.0" rx="1.5" fill="#c2703d" stroke="#a85d2f" stroke-width="0.8"/>
  <rect x="598" y="247.0" width="13" height="5.0" rx="1.5" fill="#c2703d" stroke="#a85d2f" stroke-width="0.8"/>
  <rect x="614" y="247.0" width="13" height="5.0" rx="1.5" fill="#c2703d" stroke="#a85d2f" stroke-width="0.8"/>
  <rect x="630" y="247.0" width="13" height="5.0" rx="1.5" fill="#c2703d" stroke="#a85d2f" stroke-width="0.8"/>
  <rect x="646" y="247.0" width="13" height="5.0" rx="1.5" fill="#c2703d" stroke="#a85d2f" stroke-width="0.8"/>
  <rect x="662" y="247.0" width="13" height="5.0" rx="1.5" fill="#c2703d" stroke="#a85d2f" stroke-width="0.8"/>
  <rect x="678" y="247.0" width="13" height="5.0" rx="1.5" fill="#c2703d" stroke="#a85d2f" stroke-width="0.8"/>
  <rect x="694" y="247.0" width="13" height="5.0" rx="1.5" fill="#c2703d" stroke="#a85d2f" stroke-width="0.8"/>

  <line x1="64" y1="252" x2="716" y2="252" stroke="#c9c3b8" stroke-width="1.3"/>
  <text x="64" y="272" font-family="ui-monospace, SFMono-Regular, Menlo, monospace" font-size="10" fill="#8a857d" letter-spacing="1.2">FAST</text>
  <text x="716" y="272" text-anchor="end" font-family="ui-monospace, SFMono-Regular, Menlo, monospace" font-size="10" fill="#8a857d" letter-spacing="1.2">SLOW</text>

  <line x1="204" y1="64" x2="204" y2="252" stroke="#2f6f4e" stroke-width="1.6" stroke-dasharray="4 3"/>
  <text x="214" y="78" font-family="ui-sans-serif, -apple-system, Segoe UI, Helvetica, Arial, sans-serif" font-size="12.5" fill="#2f6f4e">the average</text>
  <text x="214" y="94" font-family="ui-sans-serif, -apple-system, Segoe UI, Helvetica, Arial, sans-serif" font-size="11.5" fill="#6d6459">comfortably inside target</text>

  <line x1="620" y1="118" x2="620" y2="252" stroke="#a85d2f" stroke-width="1.6" stroke-dasharray="4 3"/>
  <text x="612" y="132" text-anchor="end" font-family="ui-sans-serif, -apple-system, Segoe UI, Helvetica, Arial, sans-serif" font-size="12.5" fill="#a85d2f">p99</text>
  <text x="612" y="148" text-anchor="end" font-family="ui-sans-serif, -apple-system, Segoe UI, Helvetica, Arial, sans-serif" font-size="11.5" fill="#6d6459">nowhere near the average</text>

  <text x="70" y="296" font-family="ui-sans-serif, -apple-system, Segoe UI, Helvetica, Arial, sans-serif" font-size="12.5" fill="#3f3b36">One request in a hundred lands in the warm part. On a page making twenty calls that is roughly</text>
  <text x="70" y="313" font-family="ui-sans-serif, -apple-system, Segoe UI, Helvetica, Arial, sans-serif" font-size="12.5" fill="#3f3b36">one page load in five containing one, and to the person having it that is not an outlier.</text>
</svg>
