<svg xmlns="http://www.w3.org/2000/svg" viewBox="0 0 760 470" width="760" height="470" role="img" aria-label="One secret on the left fans out along five paths to the places a copy ends up through ordinary use: the repository history, the image layers, the CI log, a developer's laptop, and the running process's error output. Each place is annotated with why deletion does not empty it. A green box marks the secret store as the only place that can revoke, and the caption says rotation is the one move that makes every copy worthless at once.">
  <rect width="760" height="470" rx="10" fill="#faf9f7"/>

  <text x="44" y="34" font-family="ui-monospace, SFMono-Regular, Menlo, monospace" font-size="11" fill="#8a857d" letter-spacing="1.6">ONE SECRET, FIVE COPIES, NO ATTACKER REQUIRED</text>

  <!-- the secret -->
  <rect x="44" y="170" width="150" height="64" rx="4" fill="#faf9f7" stroke="#c2703d" stroke-width="1.6"/>
  <text x="119" y="196" text-anchor="middle" font-family="ui-sans-serif, -apple-system, Segoe UI, Helvetica, Arial, sans-serif" font-size="13" fill="#a85d2f">the secret</text>
  <text x="119" y="216" text-anchor="middle" font-family="ui-monospace, SFMono-Regular, Menlo, monospace" font-size="11" fill="#3f3b36">DB_PASSWORD</text>

  <text x="44" y="256" font-family="ui-sans-serif, -apple-system, Segoe UI, Helvetica, Arial, sans-serif" font-size="11" fill="#6d6459">none of them needs an attacker;</text>
  <text x="44" y="272" font-family="ui-sans-serif, -apple-system, Segoe UI, Helvetica, Arial, sans-serif" font-size="11" fill="#6d6459">copying is how secrets get used</text>

  <!-- the store: the one counterparty -->
  <rect x="44" y="296" width="230" height="56" rx="4" fill="#eef2ef" stroke="#2f6f4e" stroke-width="1.4"/>
  <text x="60" y="318" font-family="ui-sans-serif, -apple-system, Segoe UI, Helvetica, Arial, sans-serif" font-size="12.5" fill="#1f2b24">the secret store</text>
  <text x="60" y="338" font-family="ui-sans-serif, -apple-system, Segoe UI, Helvetica, Arial, sans-serif" font-size="11" fill="#2f6f4e">the one place that can revoke it</text>

  <!-- fan-out paths -->
  <g stroke="#c2703d" stroke-width="1.1" fill="none" opacity="0.8">
    <path d="M 194 190 C 280 190, 300 90, 336 90"/>
    <path d="M 194 196 C 280 196, 300 156, 336 156"/>
    <path d="M 194 202 L 336 222"/>
    <path d="M 194 208 C 280 208, 300 288, 336 288"/>
    <path d="M 194 214 C 280 214, 300 354, 336 354"/>
  </g>
  <g fill="#c2703d">
    <polygon points="340,90 332,86 332,94"/>
    <polygon points="340,156 332,152 332,160"/>
    <polygon points="340,222 332,218 332,226"/>
    <polygon points="340,288 332,284 332,292"/>
    <polygon points="340,354 332,350 332,358"/>
  </g>

  <!-- where the copies live -->
  <g fill="#faf9f7" stroke="#c9c3b8" stroke-width="1.2">
    <rect x="340" y="64" width="376" height="52" rx="4"/>
    <rect x="340" y="130" width="376" height="52" rx="4"/>
    <rect x="340" y="196" width="376" height="52" rx="4"/>
    <rect x="340" y="262" width="376" height="52" rx="4"/>
    <rect x="340" y="328" width="376" height="52" rx="4"/>
  </g>
  <g font-family="ui-sans-serif, -apple-system, Segoe UI, Helvetica, Arial, sans-serif" font-size="12.5" fill="#1f2b24">
    <text x="356" y="85">the repository</text>
    <text x="356" y="151">the image layers</text>
    <text x="356" y="217">the CI log</text>
    <text x="356" y="283">a developer's laptop</text>
    <text x="356" y="349">the running process</text>
  </g>
  <g font-family="ui-sans-serif, -apple-system, Segoe UI, Helvetica, Arial, sans-serif" font-size="11" fill="#6d6459">
    <text x="356" y="103">deleted in a later commit is still in the history</text>
    <text x="356" y="169">hidden by a later layer, shown by docker history</text>
    <text x="356" y="235">one debug echo, kept as long as the logs are kept</text>
    <text x="356" y="301">in the shell history of every machine that used it</text>
    <text x="356" y="367">a stack trace prints it the night something breaks</text>
  </g>

  <!-- copies travelling -->
  <g fill="#c2703d">
    <circle r="3">
      <animateMotion dur="3.8s" begin="0s" repeatCount="indefinite" path="M 194 190 C 280 190, 300 90, 336 90"/>
    </circle>
    <circle r="3">
      <animateMotion dur="3.8s" begin="-0.76s" repeatCount="indefinite" path="M 194 196 C 280 196, 300 156, 336 156"/>
    </circle>
    <circle r="3">
      <animateMotion dur="3.8s" begin="-1.52s" repeatCount="indefinite" path="M 194 202 L 336 222"/>
    </circle>
    <circle r="3">
      <animateMotion dur="3.8s" begin="-2.28s" repeatCount="indefinite" path="M 194 208 C 280 208, 300 288, 336 288"/>
    </circle>
    <circle r="3">
      <animateMotion dur="3.8s" begin="-3.04s" repeatCount="indefinite" path="M 194 214 C 280 214, 300 354, 336 354"/>
    </circle>
  </g>

  <line x1="44" y1="402" x2="716" y2="402" stroke="#ded9d1" stroke-width="1"/>
  <text x="44" y="426" font-family="ui-sans-serif, -apple-system, Segoe UI, Helvetica, Arial, sans-serif" font-size="12.5" fill="#3f3b36">Deleting the file empties none of these boxes, and you cannot chase copies you cannot list.</text>
  <text x="44" y="445" font-family="ui-sans-serif, -apple-system, Segoe UI, Helvetica, Arial, sans-serif" font-size="12.5" fill="#2f6f4e">Rotation covers every box at once: it makes each copy worthless, wherever it is.</text>
</svg>
